<?xml version="1.0" encoding="utf-8"?>
<!-- Svg Vector Icons : http://www.onlinewebfonts.com/icon -->
<!DOCTYPE svg PUBLIC "-//W3C//DTD SVG 1.1//EN" "http://www.w3.org/Graphics/SVG/1.1/DTD/svg11.dtd">
<svg version="1.1" xmlns="http://www.w3.org/2000/svg" xmlns:xlink="http://www.w3.org/1999/xlink" x="0px" y="0px" viewBox="0 0 1000 1000" enable-background="new 0 0 1000 1000" xml:space="preserve">
<metadata> Svg Vector Icons : http://www.onlinewebfonts.com/icon </metadata>
<g><g id="XMLID_54_"><path id="XMLID_57_" d="M945.1,169.3h-69.4v89.8c0,45.1-36.6,81.7-81.7,81.7c-45.1,0-81.7-36.6-81.7-81.7v-89.8H287.7v89.8c0,45.1-36.6,81.7-81.7,81.7c-45.1,0-81.7-36.6-81.7-81.7v-89.8H54.9c-24.8,0-44.9,20.1-44.9,44.9v666.9c0,24.8,20.1,44.9,44.9,44.9h890.2c24.8,0,44.9-20.1,44.9-44.9V214.2C990,189.4,969.9,169.3,945.1,169.3z M256.4,736.9c0,3.7-3,6.8-6.8,6.8h-87.1c-3.8,0-6.8-3-6.8-6.8v-87.1c0-3.8,3-6.8,6.8-6.8h87.1c3.8,0,6.8,3,6.8,6.8V736.9L256.4,736.9z M256.4,540.9c0,3.7-3,6.8-6.8,6.8h-87.1c-3.8,0-6.8-3-6.8-6.8v-87.1c0-3.8,3-6.8,6.8-6.8h87.1c3.8,0,6.8,3,6.8,6.8V540.9L256.4,540.9z M743.7,453.7c0-3.8,3-6.8,6.8-6.8h87.1c3.8,0,6.8,3,6.8,6.8v87.1c0,3.7-3,6.8-6.8,6.8h-87.1c-3.8,0-6.8-3-6.8-6.8V453.7z M452.4,736.9c0,3.7-3,6.8-6.8,6.8h-87.1c-3.8,0-6.8-3-6.8-6.8v-87.1c0-3.8,3-6.8,6.8-6.8h87.1c3.8,0,6.8,3,6.8,6.8V736.9z M452.4,540.9c0,3.7-3,6.8-6.8,6.8h-87.1c-3.8,0-6.8-3-6.8-6.8v-87.1c0-3.8,3-6.8,6.8-6.8h87.1c3.8,0,6.8,3,6.8,6.8V540.9z M648.4,736.9c0,3.7-3,6.8-6.8,6.8h-87.1c-3.8,0-6.8-3-6.8-6.8v-87.1c0-3.8,3-6.8,6.8-6.8h87.1c3.8,0,6.8,3,6.8,6.8V736.9z M648.4,540.9c0,3.7-3,6.8-6.8,6.8h-87.1c-3.8,0-6.8-3-6.8-6.8v-87.1c0-3.8,3-6.8,6.8-6.8h87.1c3.8,0,6.8,3,6.8,6.8V540.9z M876.4,821.2c-22.9-25-44.5-51.1-65.6-77.5h-12c-21.6,18.9-42.9,38.2-62.7,59.2c-14.4,15.4-37.5-7.8-23.1-23.1c11.8-12.6,24.2-24.6,36.9-36.3c-3.5-0.3-6.3-3-6.3-6.6V655c-7-9.6-14-19.3-20.9-29c-12.2-17.2,16.1-33.5,28.2-16.5c8,11.2,16.1,22.3,24.2,33.4h62.5c3.8,0,6.8,3,6.8,6.8v10.8c7.3-6.5,14.7-12.9,21.8-19.6c15.3-14.5,38.4,8.6,23.1,23.1c-14.6,13.8-29.7,27-44.9,40.1v29.4c17.8,22,36,43.7,55.1,64.6C913.7,813.6,890.6,836.8,876.4,821.2z"/><path id="XMLID_56_" d="M206,308.1c27.1,0,49-21.9,49-49V123c0-27.1-21.9-49-49-49c-27,0-49,21.9-49,49v136.1C157,286.2,178.9,308.1,206,308.1z"/><path id="XMLID_55_" d="M794,308.1c27,0,49-21.9,49-49V123c0-27.1-22-49-49-49c-27.1,0-49,21.9-49,49v136.1C745,286.2,766.9,308.1,794,308.1z"/></g><g></g><g></g><g></g><g></g><g></g><g></g><g></g><g></g><g></g><g></g><g></g><g></g><g></g><g></g><g></g></g>
</svg>