<?xml version="1.0" encoding="utf-8"?>
<!-- Svg Vector Icons : http://www.onlinewebfonts.com/icon -->
<!DOCTYPE svg PUBLIC "-//W3C//DTD SVG 1.1//EN" "http://www.w3.org/Graphics/SVG/1.1/DTD/svg11.dtd">
<svg version="1.1" xmlns="http://www.w3.org/2000/svg" xmlns:xlink="http://www.w3.org/1999/xlink" x="0px" y="0px" viewBox="0 0 1000 1000" enable-background="new 0 0 1000 1000" xml:space="preserve">
<metadata> Svg Vector Icons : http://www.onlinewebfonts.com/icon </metadata>
<g><g><path d="M500.9,279.5c0,0-0.1,0-0.1,0c-18,0-32.6,14.6-32.7,32.5l-0.8,205.2c-0.1,18,14.5,32.7,32.5,32.8c0,0,0.1,0,0.1,0c0.2,0,0.3,0,0.5,0c0.1,0,0.2,0,0.4,0c1.1,0,2.2-0.3,3.3-0.4c0.9-0.1,1.8-0.2,2.7-0.3c3.3-0.6,6.7-1.6,9.8-3.4L775.2,402c15.8-8.8,21.4-28.7,12.6-44.4c-8.8-15.8-28.6-21.4-44.4-12.6L532.9,462.1l0.6-149.8C533.5,294.2,519,279.6,500.9,279.5z"/><path d="M990,500c0-270.6-219.4-490-490-490C229.4,10,10,229.4,10,500c0,42.6,5.4,83.9,15.6,123.2c7.9-46.1,48.1-81.4,96.5-81.4h4.6c-1.5-13.7-2.4-27.7-2.4-41.8c0-207.1,168.5-375.7,375.7-375.7c207.1,0,375.7,168.5,375.7,375.7S707.1,875.7,500,875.7c-11.8,0-23.4-0.6-34.9-1.7v10.8c0,44.2-29.5,81.7-69.8,93.8C429,986,464.1,990,500,990C770.6,990,990,770.6,990,500z"/><path d="M432.5,869.5V639.8c0-36-29.3-65.3-65.3-65.3H131.8h-9.7c-36,0-65.3,29.3-65.3,65.3v69.2v175.8c0,36,29.3,65.3,65.3,65.3h184.2h60.8c36,0,65.3-29.3,65.3-65.3C432.5,884.8,432.5,869.5,432.5,869.5z M303.8,773.9l59.1,59.1c4.9,4.9,6,12,3.4,18c-0.8,1.8-1.9,3.6-3.4,5.1l-24.5,24.5c-6.4,6.4-16.7,6.4-23.1,0l-59.1-59.1c-6.4-6.4-16.7-6.4-23.1,0L182,872.6l-8,8c-6.4,6.4-16.7,6.4-23.1,0l-24.5-24.5c-6.4-6.4-6.4-16.7,0-23.1l7.5-7.5l51.6-51.6c6.4-6.4,6.4-16.7,0-23.1l-59.1-59.1c-6.4-6.4-6.4-16.7,0-23.1l24.5-24.5c0.5-0.5,1.2-0.7,1.8-1.2c6.4-4.9,15.5-4.7,21.3,1.2l59.1,59.1c6.4,6.4,16.7,6.4,23.1,0l59.1-59.1c6.4-6.4,16.7-6.4,23.1,0l24.5,24.5c6.4,6.4,6.4,16.7,0,23.1l-59.1,59.1C297.4,757.2,297.4,767.5,303.8,773.9z"/></g><g></g><g></g><g></g><g></g><g></g><g></g><g></g><g></g><g></g><g></g><g></g><g></g><g></g><g></g><g></g></g>
</svg>