<?xml version="1.0" encoding="utf-8"?>
<!-- Svg Vector Icons : http://www.onlinewebfonts.com/icon -->
<!DOCTYPE svg PUBLIC "-//W3C//DTD SVG 1.1//EN" "http://www.w3.org/Graphics/SVG/1.1/DTD/svg11.dtd">
<svg version="1.1" xmlns="http://www.w3.org/2000/svg" xmlns:xlink="http://www.w3.org/1999/xlink" x="0px" y="0px" viewBox="0 0 1000 1000" enable-background="new 0 0 1000 1000" xml:space="preserve">
<metadata> Svg Vector Icons : http://www.onlinewebfonts.com/icon </metadata>
<g><path d="M659.8,671.9l-14.2,14.2c-12,11.9-32,12.5-44.6,1.3L436.9,546.2c-12.6-11.2-22.1-34.2-21.2-51l17.2-271c0.7-16.7,15.3-30.5,32.1-30.5h20.2c16.7,0,31.2,13.8,32,30.5l14,221.9c0.8,16.8,10.8,40.8,22,53.4L661,627.4C672.2,640,671.7,660,659.8,671.9L659.8,671.9z M499.9,10C229.4,10,10,229.3,10,500c0,270.7,219.4,490,489.9,490C770.6,990,990,770.7,990,500C990,229.3,770.6,10,499.9,10L499.9,10z"/></g>
</svg>