<?xml version="1.0" encoding="utf-8"?>
<!-- Svg Vector Icons : http://www.onlinewebfonts.com/icon -->
<!DOCTYPE svg PUBLIC "-//W3C//DTD SVG 1.1//EN" "http://www.w3.org/Graphics/SVG/1.1/DTD/svg11.dtd">
<svg version="1.1" xmlns="http://www.w3.org/2000/svg" xmlns:xlink="http://www.w3.org/1999/xlink" x="0px" y="0px" viewBox="0 0 1000 1000" enable-background="new 0 0 1000 1000" xml:space="preserve">
<metadata> Svg Vector Icons : http://www.onlinewebfonts.com/icon </metadata>
<g><path d="M173.5,224.5c0-9.6-4.2-17.7-12.6-24.1c-8.4-6.4-17.9-10-28.6-10.6c-10.7-0.6-20.2,2.9-28.6,10.6s-12.6,15.8-12.6,24.1s4.2,16.4,12.6,24.1c8.4,7.7,17.9,11.3,28.6,10.6c10.7-0.6,20.2-4.2,28.6-10.6C169.3,242.2,173.5,234.2,173.5,224.5z M908.8,534.3c0-12.2-4.6-26.7-13.7-43.4c-9.1-16.7-20.6-25.1-34.3-25.1c6.1-6.4,11.4-15.1,16-26.1s6.5-20.6,5.7-28.9c0-25.1-11.1-46.6-33.2-64.6c7.6-11.6,11.4-23.8,11.4-36.7c0-12.9-3.8-26.1-11.4-39.6c-7.6-13.5-17.5-23.2-29.7-28.9c1.5-10.3,2.3-20.3,2.3-29.9c0-30.2-10.3-52.7-30.9-67.5c-20.6-14.8-49.6-22.2-86.9-22.2h-81.2c-55.7,0-128.5,13.2-218.4,39.6c-2.3,0.6-8.4,2.6-18.3,5.8c-9.9,3.2-17.5,5.5-22.9,6.8c-5.3,1.3-13,3.2-22.9,5.8c-9.9,2.6-17.9,4.5-24,5.8c-6.1,1.3-13,2.6-20.6,3.9c-7.6,1.3-14.5,1.6-20.6,1h-20.6v345.4h20.6c6.9,0,14.5,1.6,22.9,4.8c8.4,3.2,16.8,8,25.2,14.5c8.4,6.4,16.8,12.5,25.2,18.3s16.8,13.8,25.2,24.1c8.4,10.3,15.6,18,21.7,23.2c6.1,5.1,13,12.5,20.6,22.2s12.6,14.8,14.9,15.4c22.9,24.4,39.3,40.8,49.2,49.2c17.5,15.4,30.1,35.1,37.7,58.9c7.6,23.8,14.1,46.3,19.4,67.5c5.3,21.2,13.3,36.7,24,46.3c41.2,0,68.6-8.7,82.3-26.1c13.7-17.4,20.2-43.4,19.4-78.2c0-20.6-9.9-49.2-29.7-85.9c-19.8-36.7-30.1-65.3-30.9-85.9h224.1c21.3,0,40.4-7.1,57.2-21.2c16.8-14.2,25.2-29.9,25.2-47.3V534.3z M990,535.2c0,36.7-16,68.8-48,96.5c-32,27.7-70.5,41.2-115.5,40.5H714.4c20.6,35.4,30.9,69.8,30.9,103.2c0,42.5-7.6,75.9-22.9,100.3c-14.5,25.1-36.2,43.4-65.2,55c-29,11.6-61,17.4-96.1,17.4c-21.3,0-40.4-6.8-57.2-20.3c-14.5-11.6-25.9-26.1-34.3-43.4c-8.4-17.4-13.7-33.8-16-49.2c-2.3-15.4-6.1-30.6-11.4-45.3s-11.8-26.4-19.4-34.7c-20.6-18-43.5-40.8-68.6-68.5c-43.5-47-72.8-74.6-88.1-83h-175c-22.1,0-41.2-6.8-57.2-20.3s-24-29.9-24-49.2V189.8c0-18.7,8-34.7,24-48.2s35.1-20.3,57.2-20.3h184.1c9.1,0,38.5-7.1,88.1-21.2c54.9-16.1,102.5-28,142.9-35.7c40.4-7.7,82.7-11.9,126.9-12.5h72c59.5,0,107.5,14.5,144.1,43.4c36.6,28.9,54.9,67.5,54.9,115.8v2.9c25.2,27.7,37.7,59.5,37.7,95.5c0,8.4-0.4,16.1-1.1,23.2c16,24.4,24,50.5,24,78.2c0,12.9-1.9,25.1-5.7,36.7C979.7,473.8,990,503.1,990,535.2L990,535.2z"/></g>
</svg>